<svg width="27" height="29" viewBox="0 0 27 29" fill="none" xmlns="http://www.w3.org/2000/svg">
<path d="M24.4025 8.9375H20.0625V6.46563C20.0224 4.76367 19.309 3.14708 18.0788 1.97022C16.8487 0.793372 15.2021 0.152287 13.5 0.187505C11.798 0.152287 10.1514 0.793372 8.92121 1.97022C7.69105 3.14708 6.9777 4.76367 6.93753 6.46563V8.9375H2.52753L0.340027 28.625H26.59L24.4025 8.9375ZM9.12503 6.46563C9.16497 5.34379 9.64777 4.28347 10.4677 3.5168C11.2877 2.75013 12.378 2.33958 13.5 2.375C14.622 2.33958 15.7123 2.75013 16.5323 3.5168C17.3523 4.28347 17.8351 5.34379 17.875 6.46563V8.9375H9.12503V6.46563ZM2.78565 26.4375L4.48534 11.125H6.93753V13.3125H9.12503V11.125H17.875V13.3125H20.0625V11.125H22.4469L24.1466 26.4375H2.78565Z" fill="#1A1A1A"/>
</svg>
