<svg width="27" height="25" viewBox="0 0 27 25" fill="none" xmlns="http://www.w3.org/2000/svg">
<path d="M7.375 2.65625C11.3125 2.65625 13.5 7.6875 13.5 7.6875C13.5 7.6875 15.6875 2.65625 19.625 2.65625C20.0711 2.66182 20.5137 2.73559 20.9375 2.875C22.0506 3.25853 22.9845 4.03679 23.5625 5.0625C24.1423 6.18525 24.4264 7.43719 24.3881 8.70021C24.3499 9.96323 23.9904 11.1957 23.3437 12.2813C20.6675 16.055 17.3329 19.3154 13.5 21.9063C9.67012 19.3117 6.33617 16.0519 3.65625 12.2813C3.04779 11.2221 2.70954 10.0295 2.67139 8.80861C2.63324 7.58775 2.89636 6.37629 3.4375 5.28125C4.01546 4.25554 4.94938 3.47728 6.0625 3.09375C6.47403 2.87923 6.91706 2.73155 7.375 2.65625V2.65625ZM19.625 0.46875C18.4022 0.535736 17.2119 0.88697 16.1487 1.49454C15.0854 2.10212 14.1785 2.94929 13.5 3.96875C12.8215 2.94929 11.9146 2.10212 10.8513 1.49454C9.78807 0.88697 8.59777 0.535736 7.375 0.46875C6.62621 0.488672 5.88635 0.636643 5.1875 0.90625C3.58902 1.50952 2.26636 2.67657 1.46875 4.1875C0.769097 5.63374 0.442595 7.23212 0.519013 8.83689C0.595431 10.4417 1.07234 12.0018 1.90625 13.375C5.1875 19.0625 13.5 24.5312 13.5 24.5312C13.5 24.5312 21.8125 19.0625 25.0938 13.5938C25.9663 12.1947 26.4647 10.5949 26.5413 8.94778C26.6179 7.30069 26.2701 5.66155 25.5312 4.1875C24.6808 2.63529 23.2739 1.46287 21.5937 0.90625C20.8949 0.636643 20.155 0.488672 19.4062 0.46875H19.625Z" fill="#1A1A1A"/>
</svg>
