<svg width="27" height="29" viewBox="0 0 27 29" fill="none" xmlns="http://www.w3.org/2000/svg">
<path d="M13.5 15.5C10.019 15.5 6.68064 16.8828 4.21922 19.3442C1.75781 21.8056 0.375 25.144 0.375 28.625H2.5625C2.5625 25.7242 3.71484 22.9422 5.76602 20.891C7.8172 18.8398 10.5992 17.6875 13.5 17.6875C16.4008 17.6875 19.1828 18.8398 21.234 20.891C23.2852 22.9422 24.4375 25.7242 24.4375 28.625H26.625C26.625 25.144 25.2422 21.8056 22.7808 19.3442C20.3194 16.8828 16.981 15.5 13.5 15.5V15.5ZM13.5 13.3125C14.7979 13.3125 16.0667 12.9276 17.1459 12.2065C18.2251 11.4854 19.0663 10.4605 19.563 9.26136C20.0597 8.06222 20.1896 6.74272 19.9364 5.46972C19.6832 4.19672 19.0582 3.0274 18.1404 2.10961C17.2226 1.19183 16.0533 0.566815 14.7803 0.3136C13.5073 0.060384 12.1878 0.190343 10.9886 0.687044C9.7895 1.18374 8.76458 2.02488 8.04348 3.10407C7.32238 4.18327 6.9375 5.45206 6.9375 6.75C6.9375 8.49049 7.6289 10.1597 8.85961 11.3904C10.0903 12.6211 11.7595 13.3125 13.5 13.3125V13.3125ZM13.5 2.375C14.3653 2.375 15.2112 2.63159 15.9306 3.11232C16.6501 3.59305 17.2108 4.27634 17.542 5.07576C17.8731 5.87519 17.9597 6.75486 17.7909 7.60352C17.6221 8.45219 17.2054 9.23174 16.5936 9.8436C15.9817 10.4555 15.2022 10.8721 14.3535 11.0409C13.5049 11.2097 12.6252 11.1231 11.8258 10.792C11.0263 10.4608 10.3431 9.90009 9.86232 9.18062C9.38159 8.46116 9.125 7.6153 9.125 6.75C9.125 5.58968 9.58594 4.47688 10.4064 3.65641C11.2269 2.83594 12.3397 2.375 13.5 2.375V2.375Z" fill="#1A1A1A"/>
</svg>
