<svg width="22" height="22" viewBox="0 0 22 22" fill="none" xmlns="http://www.w3.org/2000/svg">
<path fill-rule="evenodd" clip-rule="evenodd" d="M14.8564 16.3073C13.1961 17.7533 11.0304 18.4823 8.83367 18.3346C4.11136 18.025 0.490205 13.8735 0.724435 9.06231C0.960012 4.23904 4.98232 0.565382 9.71674 0.876344C14.4364 1.18596 18.0575 5.3375 17.8233 10.1473C17.7475 11.8248 17.1894 13.4448 16.216 14.8131L21.8685 19.7979L20.5331 21.3123L14.8564 16.3073ZM8.96559 16.3194C5.35386 16.0825 2.55924 12.8813 2.74097 9.16058C2.9227 5.45461 5.98655 2.65596 9.58347 2.89019C13.1939 3.12846 15.9871 6.32961 15.8067 10.049C15.6264 13.7563 12.5625 16.555 8.96559 16.3194Z" fill="#1A1A1A"/>
</svg>
