<svg width="30" height="30" viewBox="0 0 30 30" fill="none" xmlns="http://www.w3.org/2000/svg">
<path d="M28.504 23.11H1.55096C1.31793 23.11 1.12897 22.9211 1.12897 22.6881V7.36676C1.12897 7.13367 1.31793 6.94482 1.55096 6.94482H28.504C28.7371 6.94482 28.9259 7.13373 28.9259 7.36676V22.6881C28.9259 22.9211 28.737 23.11 28.504 23.11ZM1.97289 22.2662H28.082V7.78869H1.97289V22.2662Z" fill="#0B1023"/>
<path d="M15.0258 15.4494C14.9539 15.4494 14.8819 15.4311 14.8173 15.3943L1.34243 7.73361C1.17596 7.63898 1.09405 7.4441 1.14304 7.25889C1.19202 7.07367 1.35948 6.94482 1.55096 6.94482H28.504C28.6955 6.94482 28.863 7.07379 28.912 7.25889C28.9609 7.44404 28.879 7.63893 28.7125 7.73361L15.2344 15.3943C15.1697 15.431 15.0977 15.4494 15.0258 15.4494ZM3.14694 7.78875L15.0258 14.5421L26.9076 7.78875H3.14694Z" fill="#0B1023"/>
</svg>
